<svg version="1.1" xmlns="http://www.w3.org/2000/svg" style="display: block;" viewBox="0 0 2048 2048" width="512" height="512">
<path transform="translate(0,0)" fill="rgb(55,1,159)" d="M 120.155 8.5314 L 1851.58 7.99487 C 1937.78 8.0155 1984.72 -0.53531 2031.81 90 C 2035.26 96.6255 2039.72 103.071 2040.1 110.679 L 2040.39 1921.18 C 2040.32 1955.32 2037.46 1967.77 2012.42 1995.18 C 1992.63 2016.84 1959.26 2037.54 1929.25 2038.92 L 1927.29 2039.2 C 1914.63 2040.33 1901.7 2039.9 1889 2039.91 L 146.637 2039.92 C 133.937 2039.9 120.925 2040.42 108.274 2039.35 C 62.2558 2035.47 12.1127 1979.1 8.41372 1935.07 C 7.39019 1922.88 8.0358 1910.25 8.03302 1898.03 L 8.0362 151.136 C 8.04527 140.385 7.47044 129.244 8.51584 118.543 C 13.8378 64.0666 65.6892 12.7651 120.155 8.5314 z"/>
<path transform="translate(0,0)" fill="rgb(186,29,131)" d="M 389.99 69.3688 L 1894.31 69.9155 C 1930.89 71.716 1963.89 81.1594 1974.92 120.656 L 1975.28 122 C 1977.18 128.574 1976.51 135.401 1976.38 142.179 L 1975.95 258.589 C 1975.75 267.141 1974.33 275.499 1974.03 284 L 1974.31 346.164 L 1654.75 346.234 L 73.0629 346.565 L 74.3369 146.448 C 77.7443 50.6334 157.954 69.525 228.165 69.4826 L 389.99 69.3688 z"/>
<path transform="translate(0,0)" fill="rgb(55,1,159)" d="M 462.746 175.416 C 486.927 170.353 518.86 183.332 513.408 212.654 L 513.14 214 C 508.999 235.991 488.991 240.871 469.305 242.854 C 460.61 243.087 450.662 243.312 442.336 240.546 L 441 240.076 C 402.222 226.885 406.114 181.207 462.746 175.416 z"/>
<path transform="translate(0,0)" fill="rgb(55,1,159)" d="M 693.493 175.384 C 700.313 172.969 717.18 174.487 723.566 176.36 L 725 176.808 C 754.914 185.784 757.217 222.093 732.377 234.775 L 731.259 235.317 C 723.205 239.327 714.492 240.2 705.661 241.089 C 691.855 241.138 672.953 242.177 661 234.098 C 648.362 225.556 641.564 203.017 651.613 190.206 C 660.63 178.711 680.008 176.999 693.493 175.384 z"/>
<path transform="translate(0,0)" fill="rgb(55,1,159)" d="M 233.851 176.429 C 247.312 175.847 263.905 176.546 275 184.927 C 288.341 195.003 292.504 213.206 281.045 226.319 C 269.24 239.827 251.449 241.067 234.816 241.878 C 224.043 241.617 210.261 242.098 200.362 237.632 L 199 236.995 C 190.965 233.436 185.278 229.538 181.287 221.398 L 180.707 220.17 C 176.036 210.599 179.77 197.665 186.559 190.12 C 198.252 177.127 217.731 177.284 233.851 176.429 z"/>
<path transform="translate(0,0)" fill="rgb(55,1,159)" d="M 1787.51 178.619 L 1821.57 178.44 C 1837.32 178.386 1856.91 175.784 1869.25 187.748 C 1881.62 199.736 1876.14 220.769 1865.13 231.694 C 1852.18 244.539 1829.51 241.767 1812.85 241.784 L 1772.89 241.744 L 1733.09 241.769 C 1724.31 241.75 1713.73 242.74 1705.45 239.492 C 1681.22 229.997 1675.6 192.93 1701.12 181.99 L 1702.28 181.5 C 1712.86 176.806 1727.98 178.69 1739.55 178.663 L 1787.51 178.619 z"/>
<path transform="translate(0,0)" fill="rgb(29,192,251)" d="M 71.0428 409.402 L 1974.44 410.345 L 1976.17 1890.55 C 1976.2 1899.22 1976.66 1908.16 1975.54 1916.77 L 1975.3 1918.5 C 1973.31 1933.96 1967.91 1945.64 1958.44 1957.94 L 1957.84 1958.6 C 1944.31 1973.15 1926.37 1977.05 1907.25 1977.7 L 218.517 1978.17 C 189.68 1978.18 160.12 1979.55 131.388 1977.8 C 64.2124 1973.7 73.8508 1898.49 73.8081 1849.46 L 73.5528 442.782 C 73.2664 431.547 71.0222 420.611 71.0428 409.402 z"/>
<path transform="translate(0,0)" fill="rgb(55,1,159)" d="M 765.093 1161.14 C 776.003 1160.37 784.075 1165.52 790.04 1174.57 L 790.998 1176.05 C 797.205 1185.53 794.689 1198.7 794.738 1209.42 L 796.585 1569.27 C 796.644 1594.17 804.176 1629.45 771.087 1635.39 C 747.218 1634.76 738.447 1619.34 738.361 1598.35 L 738.369 1292.59 C 738.341 1259.55 736.708 1225.67 738.569 1192.76 C 739.562 1175.2 747.724 1164.9 765.093 1161.14 z"/>
<path transform="translate(0,0)" fill="rgb(55,1,159)" d="M 1275.95 1029.28 C 1317.36 1031.1 1305.56 1080.23 1305.59 1108.72 L 1305.64 1610.28 C 1305.19 1625.89 1293.28 1633.88 1278.66 1636.16 C 1248.82 1631.77 1247.99 1610.9 1247.86 1584.42 L 1247.55 1097.39 C 1247.38 1070.37 1240.08 1036.1 1275.95 1029.28 z"/>
<path transform="translate(0,0)" fill="rgb(55,1,159)" d="M 506.552 981.132 C 545.484 979.645 540.621 1021.44 542.017 1050.98 L 542.165 1604.76 C 541.471 1620.55 533.443 1629.6 518.261 1634.15 C 496.068 1634.73 483.859 1620.3 482.771 1598.18 L 482.068 1012 C 482.663 996.093 491.696 986.346 506.552 981.132 z"/>
<path transform="translate(0,0)" fill="rgb(55,1,159)" d="M 1021.68 853.263 C 1050.95 856.416 1051.1 885.163 1051.13 908.691 L 1051.44 1607.33 C 1051.23 1624.03 1041.1 1632.52 1024.93 1635.39 C 999.467 1633.61 992.987 1617.97 992.977 1596.12 L 992.888 933.65 C 992.821 904.59 982.809 860.942 1021.68 853.263 z"/>
<path transform="translate(0,0)" fill="rgb(55,1,159)" d="M 1527.95 692.218 C 1540.76 692.379 1551.82 697.432 1556.88 710.184 L 1557.38 711.5 C 1561.05 720.79 1559.8 730.793 1559.83 740.56 L 1559.94 1603 C 1559.66 1621.32 1549.43 1631.14 1531.49 1633.88 C 1519.72 1632.14 1507.67 1627.71 1503.29 1615.36 L 1502.03 1611.61 C 1500.75 1606.84 1501.7 1600.27 1501.85 1595.31 L 1501.56 729.826 C 1501.15 709.518 1506.45 696.871 1527.95 692.218 z"/>
</svg>